<?xml version="1.0" encoding="UTF-8" standalone="no"?>
<!-- Created with Inkscape (http://www.inkscape.org/) -->

<svg
   version="1.1"
   id="svg291"
   width="128"
   height="128"
   viewBox="0 0 128 128"
   sodipodi:docname="icon_emission.svg"
   inkscape:version="1.2.1 (9c6d41e410, 2022-07-14)"
   inkscape:export-filename="icon.png"
   inkscape:export-xdpi="768"
   inkscape:export-ydpi="768"
   xmlns:inkscape="http://www.inkscape.org/namespaces/inkscape"
   xmlns:sodipodi="http://sodipodi.sourceforge.net/DTD/sodipodi-0.dtd"
   xmlns="http://www.w3.org/2000/svg"
   xmlns:svg="http://www.w3.org/2000/svg">
  <defs
     id="defs295">
    <inkscape:path-effect
       effect="fillet_chamfer"
       id="path-effect3134"
       is_visible="true"
       lpeversion="1"
       nodesatellites_param="F,0,0,1,0,5,0,1 @ F,0,0,1,0,5,0,1 @ F,0,0,1,0,0,0,1 @ F,0,0,1,0,0,0,1"
       unit="px"
       method="auto"
       mode="F"
       radius="0"
       chamfer_steps="1"
       flexible="false"
       use_knot_distance="true"
       apply_no_radius="true"
       apply_with_radius="true"
       only_selected="false"
       hide_knots="false" />
    <inkscape:path-effect
       effect="fillet_chamfer"
       id="path-effect3130"
       is_visible="true"
       lpeversion="1"
       nodesatellites_param="F,0,0,1,0,5,0,1 @ F,0,0,1,0,5,0,1 @ F,0,0,1,0,0,0,1 @ F,0,0,1,0,0,0,1"
       unit="px"
       method="auto"
       mode="F"
       radius="0"
       chamfer_steps="1"
       flexible="false"
       use_knot_distance="true"
       apply_no_radius="true"
       apply_with_radius="true"
       only_selected="false"
       hide_knots="false" />
    <inkscape:path-effect
       effect="fillet_chamfer"
       id="path-effect3126"
       is_visible="true"
       lpeversion="1"
       nodesatellites_param="F,0,0,1,0,5,0,1 @ F,0,0,1,0,5,0,1 @ F,0,0,1,0,0,0,1 @ F,0,0,1,0,0,0,1"
       unit="px"
       method="auto"
       mode="F"
       radius="0"
       chamfer_steps="1"
       flexible="false"
       use_knot_distance="true"
       apply_no_radius="true"
       apply_with_radius="true"
       only_selected="false"
       hide_knots="false" />
    <inkscape:path-effect
       effect="fillet_chamfer"
       id="path-effect3122"
       is_visible="true"
       lpeversion="1"
       nodesatellites_param="F,0,0,1,0,5,0,1 @ F,0,0,1,0,5,0,1 @ F,0,0,1,0,0,0,1 @ F,0,0,1,0,0,0,1"
       unit="px"
       method="auto"
       mode="F"
       radius="0"
       chamfer_steps="1"
       flexible="false"
       use_knot_distance="true"
       apply_no_radius="true"
       apply_with_radius="true"
       only_selected="false"
       hide_knots="false" />
    <inkscape:path-effect
       effect="fillet_chamfer"
       id="path-effect3110"
       is_visible="true"
       lpeversion="1"
       nodesatellites_param="F,0,0,1,0,5,0,1 @ F,0,0,1,0,5,0,1 @ F,0,0,1,0,0,0,1 @ F,0,0,1,0,0,0,1"
       unit="px"
       method="auto"
       mode="F"
       radius="0"
       chamfer_steps="1"
       flexible="false"
       use_knot_distance="true"
       apply_no_radius="true"
       apply_with_radius="true"
       only_selected="false"
       hide_knots="false" />
    <inkscape:path-effect
       effect="fillet_chamfer"
       id="path-effect3106"
       is_visible="true"
       lpeversion="1"
       nodesatellites_param="F,0,0,1,0,5,0,1 @ F,0,0,1,0,5,0,1 @ F,0,0,1,0,0,0,1 @ F,0,0,1,0,0,0,1"
       unit="px"
       method="auto"
       mode="F"
       radius="0"
       chamfer_steps="1"
       flexible="false"
       use_knot_distance="true"
       apply_no_radius="true"
       apply_with_radius="true"
       only_selected="false"
       hide_knots="false" />
    <inkscape:path-effect
       effect="fillet_chamfer"
       id="path-effect3098"
       is_visible="true"
       lpeversion="1"
       nodesatellites_param="F,0,0,1,0,5,0,1 @ F,0,0,1,0,5,0,1 @ F,0,0,1,0,0,0,1 @ F,0,0,1,0,0,0,1"
       unit="px"
       method="auto"
       mode="F"
       radius="0"
       chamfer_steps="1"
       flexible="false"
       use_knot_distance="true"
       apply_no_radius="true"
       apply_with_radius="true"
       only_selected="false"
       hide_knots="false" />
    <inkscape:path-effect
       effect="fillet_chamfer"
       id="path-effect3092"
       is_visible="true"
       lpeversion="1"
       nodesatellites_param="F,0,0,1,0,5,0,1 @ F,0,0,1,0,5,0,1 @ F,0,0,1,0,0,0,1 @ F,0,0,1,0,0,0,1"
       unit="px"
       method="auto"
       mode="F"
       radius="0"
       chamfer_steps="1"
       flexible="false"
       use_knot_distance="true"
       apply_no_radius="true"
       apply_with_radius="true"
       only_selected="false"
       hide_knots="false" />
    <inkscape:path-effect
       effect="fillet_chamfer"
       id="path-effect3034"
       is_visible="true"
       lpeversion="1"
       nodesatellites_param="F,0,0,1,0,5,0,1 @ F,0,0,1,0,5,0,1 @ F,0,0,1,0,5,0,1 @ F,0,0,1,0,5,0,1"
       unit="px"
       method="auto"
       mode="F"
       radius="0"
       chamfer_steps="1"
       flexible="false"
       use_knot_distance="true"
       apply_no_radius="true"
       apply_with_radius="true"
       only_selected="false"
       hide_knots="false" />
    <inkscape:path-effect
       effect="fillet_chamfer"
       id="path-effect3028"
       is_visible="true"
       lpeversion="1"
       nodesatellites_param="F,0,0,1,0,10,0,1 @ F,0,0,1,0,10,0,1 @ F,0,0,1,0,10,0,1 @ F,0,0,1,0,10,0,1"
       unit="px"
       method="auto"
       mode="F"
       radius="0"
       chamfer_steps="1"
       flexible="false"
       use_knot_distance="true"
       apply_no_radius="true"
       apply_with_radius="true"
       only_selected="false"
       hide_knots="false" />
    <inkscape:path-effect
       effect="fillet_chamfer"
       id="path-effect2972"
       is_visible="true"
       lpeversion="1"
       nodesatellites_param="F,0,0,1,0,5,0,1 @ F,0,0,1,0,5,0,1 @ F,0,0,1,0,5,0,1 @ F,0,0,1,0,5,0,1"
       unit="px"
       method="auto"
       mode="F"
       radius="0"
       chamfer_steps="1"
       flexible="false"
       use_knot_distance="true"
       apply_no_radius="true"
       apply_with_radius="true"
       only_selected="false"
       hide_knots="false" />
    <inkscape:path-effect
       effect="fillet_chamfer"
       id="path-effect2538"
       is_visible="true"
       lpeversion="1"
       nodesatellites_param="F,0,0,1,0,5,0,1 @ F,0,0,1,0,0,0,1 @ F,0,0,1,0,30,0,1 @ F,0,0,1,0,0,0,1 @ F,0,0,1,0,30,0,1 @ F,0,0,1,0,0,0,1 @ F,0,0,1,0,7.0710678,0,1 @ F,0,0,1,0,3.5355339,0,1 @ F,0,0,1,0,15,0,1 @ F,0,0,1,0,0,0,1 @ F,0,0,1,0,15,0,1 @ F,0,0,1,0,0,0,1 @ F,0,0,1,0,15,0,1 @ F,0,0,1,0,0,0,1 @ F,0,0,1,0,5,0,1"
       unit="px"
       method="auto"
       mode="F"
       radius="0"
       chamfer_steps="1"
       flexible="false"
       use_knot_distance="true"
       apply_no_radius="true"
       apply_with_radius="true"
       only_selected="false"
       hide_knots="false" />
  </defs>
  <sodipodi:namedview
     id="namedview293"
     pagecolor="#000000"
     bordercolor="#000000"
     borderopacity="0.25"
     inkscape:showpageshadow="2"
     inkscape:pageopacity="0"
     inkscape:pagecheckerboard="0"
     inkscape:deskcolor="#d1d1d1"
     showgrid="true"
     inkscape:zoom="4.7281779"
     inkscape:cx="29.292468"
     inkscape:cy="63.555139"
     inkscape:window-width="1920"
     inkscape:window-height="991"
     inkscape:window-x="-9"
     inkscape:window-y="-9"
     inkscape:window-maximized="1"
     inkscape:current-layer="g297">
    <inkscape:grid
       type="xygrid"
       id="grid1389"
       originx="64"
       originy="64" />
  </sodipodi:namedview>
  <g
     inkscape:groupmode="layer"
     inkscape:label="Image"
     id="g297">
    <rect
       style="fill:#000000;fill-opacity:1;stroke-width:5;stroke-linecap:round;stroke-linejoin:round"
       id="rect4026"
       width="110"
       height="110"
       x="9"
       y="9" />
    <path
       style="fill:#808080;stroke-width:5;stroke-linecap:round;stroke-linejoin:round"
       d="M 84,19 H 49 A 30,30 135 0 0 19,49 30,30 45 0 0 49,79 h 5 l -25,25 a 2.9289322,2.9289322 67.5 0 0 2.071068,5 h 9.393398 A 8.5355339,8.5355339 157.5 0 0 46.5,106.5 L 78.393398,74.606602 A 6.2132034,6.2132034 67.5 0 0 74,64 H 49 A 15,15 45 0 1 34,49 15,15 135 0 1 49,34 h 35 a 5,5 135 0 0 5,-5 v -5 a 5,5 45 0 0 -5,-5 z"
       id="path2534"
       inkscape:path-effect="#path-effect2538"
       inkscape:original-d="M 89,19 H 49 19 V 49 79 H 54 L 24,109 H 44 L 89,64 H 49 34 V 49 34 h 15 40 z"
       sodipodi:nodetypes="cccccccccccccccc" />
    <path
       style="fill:#808080;stroke-width:5;stroke-linecap:round;stroke-linejoin:round"
       d="m 99,109 h 5 a 5,5 135 0 0 5,-5 V 24 a 5,5 45 0 0 -5,-5 h -5 a 5,5 135 0 0 -5,5 v 80 a 5,5 45 0 0 5,5 z"
       id="path2536"
       sodipodi:nodetypes="ccccc"
       inkscape:path-effect="#path-effect2972"
       inkscape:original-d="m 94,109 h 15 V 19 H 94 Z" />
    <path
       style="fill:#ff007f;stroke-width:5.91608;stroke-linecap:round;stroke-linejoin:round;fill-opacity:1"
       id="rect2688"
       width="35"
       height="10"
       x="79"
       y="114"
       inkscape:path-effect="#path-effect3092"
       d="m 84,114 h 25 a 5,5 45 0 1 5,5 v 5 H 79 v -5 a 5,5 135 0 1 5,-5 z"
       sodipodi:type="rect" />
    <path
       style="fill:#ff007f;stroke-width:5.91608;stroke-linecap:round;stroke-linejoin:round;fill-opacity:1"
       id="path3094"
       width="35"
       height="10"
       x="-114"
       y="-14"
       inkscape:path-effect="#path-effect3098"
       d="m -109,-14 h 25 a 5,5 45 0 1 5,5 v 5 h -35 v -5 a 5,5 135 0 1 5,-5 z"
       sodipodi:type="rect"
       transform="scale(-1)" />
    <path
       style="fill:#ff7f00;stroke-width:5.91608;stroke-linecap:round;stroke-linejoin:round;fill-opacity:1"
       id="path3100"
       width="35"
       height="10"
       x="14"
       y="114"
       inkscape:path-effect="#path-effect3106"
       d="m 19,114 h 25 a 5,5 45 0 1 5,5 v 5 H 14 v -5 a 5,5 135 0 1 5,-5 z"
       sodipodi:type="rect" />
    <path
       style="fill:#ff7f00;stroke-width:5.91608;stroke-linecap:round;stroke-linejoin:round;fill-opacity:1"
       id="path3102"
       width="35"
       height="10"
       x="-49"
       y="-14"
       inkscape:path-effect="#path-effect3110"
       d="m -44,-14 h 25 a 5,5 45 0 1 5,5 v 5 h -35 v -5 a 5,5 135 0 1 5,-5 z"
       sodipodi:type="rect"
       transform="scale(-1)" />
    <path
       style="fill:#00ff00;stroke-width:5.91608;stroke-linecap:round;stroke-linejoin:round"
       id="path3112"
       width="35"
       height="10"
       x="79"
       y="-14"
       inkscape:path-effect="#path-effect3122"
       d="m 84,-14 h 25 a 5,5 45 0 1 5,5 v 5 H 79 v -5 a 5,5 135 0 1 5,-5 z"
       sodipodi:type="rect"
       transform="rotate(90)" />
    <path
       style="fill:#00ff00;stroke-width:5.91608;stroke-linecap:round;stroke-linejoin:round"
       id="path3114"
       width="35"
       height="10"
       x="-114"
       y="114"
       inkscape:path-effect="#path-effect3126"
       d="m -109,114 h 25 a 5,5 45 0 1 5,5 v 5 h -35 v -5 a 5,5 135 0 1 5,-5 z"
       sodipodi:type="rect"
       transform="rotate(-90)" />
    <path
       style="fill:#00bfff;stroke-width:5.91608;stroke-linecap:round;stroke-linejoin:round;fill-opacity:1"
       id="path3116"
       width="35"
       height="10"
       x="14"
       y="-14"
       inkscape:path-effect="#path-effect3130"
       d="m 19,-14 h 25 a 5,5 45 0 1 5,5 v 5 H 14 v -5 a 5,5 135 0 1 5,-5 z"
       sodipodi:type="rect"
       transform="rotate(90)" />
    <path
       style="fill:#00bfff;stroke-width:5.91608;stroke-linecap:round;stroke-linejoin:round;fill-opacity:1"
       id="path3118"
       width="35"
       height="10"
       x="-49"
       y="114"
       inkscape:path-effect="#path-effect3134"
       d="m -44,114 h 25 a 5,5 45 0 1 5,5 v 5 h -35 v -5 a 5,5 135 0 1 5,-5 z"
       sodipodi:type="rect"
       transform="rotate(-90)" />
    <path
       id="rect3026"
       style="fill:#808080;stroke-width:5;stroke-linecap:round;stroke-linejoin:round"
       d="M 14 4 A 10 10 0 0 0 4 14 L 4 114 A 10 10 0 0 0 14 124 L 114 124 A 10 10 0 0 0 124 114 L 124 14 A 10 10 0 0 0 114 4 L 14 4 z M 14 9 L 114 9 A 5 5 0 0 1 119 14 L 119 114 A 5 5 0 0 1 114 119 L 14 119 A 5 5 0 0 1 9 114 L 9 14 A 5 5 0 0 1 14 9 z " />
  </g>
</svg>
